<svg width="16" height="16" viewBox="0 0 16 16" fill="none" xmlns="http://www.w3.org/2000/svg">
<g clip-path="url(#clip0_1_238)">
<path d="M1.33301 8.00004C1.33301 4.85734 1.33301 3.286 2.30932 2.30968C3.28563 1.33337 4.85698 1.33337 7.99967 1.33337C11.1424 1.33337 12.7137 1.33337 13.69 2.30968C14.6663 3.286 14.6663 4.85734 14.6663 8.00004C14.6663 11.1427 14.6663 12.7141 13.69 13.6904C12.7137 14.6667 11.1424 14.6667 7.99967 14.6667C4.85698 14.6667 3.28563 14.6667 2.30932 13.6904C1.33301 12.7141 1.33301 11.1427 1.33301 8.00004Z" stroke="#877EFF" stroke-width="1.5"/>
<path d="M10 8.00002L8 8.00002M8 8.00002L6 8.00002M8 8.00002L8 6M8 8.00002L8 10" stroke="#877EFF" stroke-width="1.5" stroke-linecap="round"/>
</g>
<defs>
<clipPath id="clip0_1_238">
<rect width="16" height="16" fill="white"/>
</clipPath>
</defs>
</svg>
