<svg width="28" height="28" viewBox="0 0 28 28" fill="none" xmlns="http://www.w3.org/2000/svg">
<path fill-rule="evenodd" clip-rule="evenodd" d="M11.0263 3.79163H11.1404C13.0097 3.79161 14.4906 3.7916 15.6622 3.93009C16.865 4.07226 17.8552 4.37074 18.6823 5.04953C18.9629 5.27981 19.2202 5.5371 19.4504 5.8177C20.1292 6.6448 20.4277 7.63495 20.5699 8.83775C20.6018 9.10811 20.6264 9.39493 20.6453 9.6992C21.5623 9.2422 22.3394 8.86669 22.987 8.65477C23.7471 8.40608 24.5532 8.30572 25.2967 8.76523C26.0402 9.22474 26.311 9.99067 26.4284 10.7817C26.5418 11.5448 26.5417 12.5501 26.5417 13.7578V14.2421C26.5417 15.4499 26.5418 16.4551 26.4284 17.2182C26.311 18.0092 26.0402 18.7752 25.2967 19.2347C24.5532 19.6942 23.7471 19.5938 22.987 19.3452C22.3394 19.1332 21.5623 18.7577 20.6453 18.3007C20.6264 18.605 20.6018 18.8918 20.5699 19.1622C20.4277 20.365 20.1292 21.3551 19.4504 22.1822C19.2202 22.4628 18.9629 22.7201 18.6823 22.9504C17.8552 23.6292 16.865 23.9277 15.6622 24.0698C14.4906 24.2083 13.0097 24.2083 11.1405 24.2083H11.0262C9.15695 24.2083 7.67605 24.2083 6.50447 24.0698C5.30167 23.9277 4.31152 23.6292 3.48441 22.9504C3.20382 22.7201 2.94652 22.4628 2.71624 22.1822C2.03746 21.3551 1.73898 20.365 1.5968 19.1622C1.45832 17.9906 1.45833 16.5097 1.45834 14.6404V13.3596C1.45833 11.4903 1.45832 10.0093 1.5968 8.83775C1.73898 7.63495 2.03746 6.6448 2.71624 5.8177C2.94652 5.5371 3.20382 5.27981 3.48441 5.04953C4.31152 4.37074 5.30167 4.07226 6.50447 3.93009C7.67606 3.7916 9.15697 3.79161 11.0263 3.79163ZM18.9583 14.5833V13.4166C18.9583 11.4775 18.9569 10.1001 18.832 9.04318C18.7093 8.00559 18.4782 7.39152 18.0977 6.92789C17.9401 6.7359 17.7641 6.55986 17.5721 6.4023C17.1084 6.0218 16.4944 5.79063 15.4568 5.66799C14.3999 5.54306 13.0225 5.54163 11.0833 5.54163C9.14421 5.54163 7.76679 5.54306 6.70989 5.66799C5.67231 5.79063 5.05824 6.0218 4.5946 6.4023C4.40262 6.55986 4.22657 6.7359 4.06901 6.92789C3.68852 7.39152 3.45735 8.00559 3.33471 9.04318C3.20978 10.1001 3.20834 11.4775 3.20834 13.4166V14.5833C3.20834 16.5224 3.20978 17.8998 3.33471 18.9567C3.45735 19.9943 3.68852 20.6084 4.06901 21.072C4.22657 21.264 4.40262 21.4401 4.5946 21.5976C5.05824 21.9781 5.67231 22.2093 6.70989 22.3319C7.76679 22.4569 9.14421 22.4583 11.0833 22.4583C13.0225 22.4583 14.3999 22.4569 15.4568 22.3319C16.4944 22.2093 17.1084 21.9781 17.5721 21.5976C17.7641 21.4401 17.9401 21.264 18.0977 21.072C18.4782 20.6084 18.7093 19.9943 18.832 18.9567C18.9569 17.8998 18.9583 16.5224 18.9583 14.5833ZM20.7083 16.3758L20.9927 16.518C22.154 17.0987 22.9364 17.4873 23.5313 17.6819C24.1138 17.8726 24.2902 17.7995 24.3767 17.7461C24.4632 17.6926 24.6074 17.5675 24.6974 16.9612C24.7894 16.3421 24.7917 15.4685 24.7917 14.1702V13.8297C24.7917 12.5314 24.7894 11.6578 24.6974 11.0387C24.6074 10.4324 24.4632 10.3073 24.3767 10.2539C24.2902 10.2004 24.1138 10.1274 23.5313 10.318C22.9364 10.5126 22.154 10.9012 20.9927 11.4819L20.7083 11.6241V13.2609C20.7083 13.2936 20.7083 13.3265 20.7083 13.3596V14.6404C20.7083 14.6734 20.7083 14.7063 20.7083 14.7391V16.3758Z" fill="#7878A3"/>
</svg>
