<svg width="22" height="22" viewBox="0 0 22 22" fill="none" xmlns="http://www.w3.org/2000/svg">
<path fill-rule="evenodd" clip-rule="evenodd" d="M11 1.75C5.89137 1.75 1.75 5.89137 1.75 11C1.75 12.4811 2.09753 13.8788 2.7148 15.1181C2.96254 15.6155 3.05794 16.2103 2.90163 16.7945L2.30602 19.0205C2.19663 19.4293 2.57066 19.8034 2.97949 19.694L5.20553 19.0984C5.78973 18.9421 6.38451 19.0375 6.88191 19.2852C8.12121 19.9025 9.51894 20.25 11 20.25C16.1086 20.25 20.25 16.1086 20.25 11C20.25 5.89137 16.1086 1.75 11 1.75ZM0.25 11C0.25 5.06294 5.06294 0.25 11 0.25C16.9371 0.25 21.75 5.06294 21.75 11C21.75 16.9371 16.9371 21.75 11 21.75C9.28169 21.75 7.65552 21.3463 6.21315 20.6279C5.99791 20.5207 5.77814 20.4979 5.59324 20.5474L3.3672 21.143C1.84337 21.5507 0.449273 20.1566 0.856996 18.6328L1.4526 16.4068C1.50208 16.2219 1.47933 16.0021 1.37213 15.7869C0.653707 14.3445 0.25 12.7183 0.25 11ZM6.25 9.5C6.25 9.08579 6.58579 8.75 7 8.75H15C15.4142 8.75 15.75 9.08579 15.75 9.5C15.75 9.91421 15.4142 10.25 15 10.25H7C6.58579 10.25 6.25 9.91421 6.25 9.5ZM6.25 13C6.25 12.5858 6.58579 12.25 7 12.25H12.5C12.9142 12.25 13.25 12.5858 13.25 13C13.25 13.4142 12.9142 13.75 12.5 13.75H7C6.58579 13.75 6.25 13.4142 6.25 13Z" fill="#877EFF"/>
</svg>
