<svg width="20" height="20" viewBox="0 0 20 20" fill="none" xmlns="http://www.w3.org/2000/svg">
<path d="M7.45833 9.95836C7.45833 10.4186 7.08524 10.7917 6.625 10.7917C6.16476 10.7917 5.79167 10.4186 5.79167 9.95836C5.79167 9.49813 6.16476 9.12503 6.625 9.12503C7.08524 9.12503 7.45833 9.49813 7.45833 9.95836Z" fill="#877EFF"/>
<path d="M10.7917 9.95836C10.7917 10.4186 10.4186 10.7917 9.95833 10.7917C9.49809 10.7917 9.125 10.4186 9.125 9.95836C9.125 9.49813 9.49809 9.12503 9.95833 9.12503C10.4186 9.12503 10.7917 9.49813 10.7917 9.95836Z" fill="#877EFF"/>
<path d="M14.125 9.95836C14.125 10.4186 13.7519 10.7917 13.2917 10.7917C12.8314 10.7917 12.4583 10.4186 12.4583 9.95836C12.4583 9.49813 12.8314 9.12503 13.2917 9.12503C13.7519 9.12503 14.125 9.49813 14.125 9.95836Z" fill="#877EFF"/>
<path fill-rule="evenodd" clip-rule="evenodd" d="M18.9167 9.95836C18.9167 5.01081 14.9059 1.00003 9.95833 1.00003C5.01078 1.00003 1 5.01081 1 9.95836C1 11.3903 1.33642 12.7454 1.9351 13.9474C2.02444 14.1268 2.0434 14.3099 2.00217 14.464L1.50583 16.319C1.16606 17.5889 2.32781 18.7506 3.59767 18.4109L5.4527 17.9145C5.60678 17.8733 5.78992 17.8923 5.96929 17.9816C7.17127 18.5803 8.52641 18.9167 9.95833 18.9167C14.9059 18.9167 18.9167 14.9059 18.9167 9.95836ZM9.95833 2.25003C14.2155 2.25003 17.6667 5.70117 17.6667 9.95836C17.6667 14.2156 14.2155 17.6667 9.95833 17.6667C8.72412 17.6667 7.55934 17.3771 6.52659 16.8627C6.11209 16.6562 5.61644 16.5767 5.12961 16.707L3.27458 17.2033C2.93388 17.2945 2.6222 16.9828 2.71335 16.6421L3.20969 14.7871C3.33995 14.3003 3.26045 13.8046 3.054 13.3901C2.5396 12.3574 2.25 11.1926 2.25 9.95836C2.25 5.70117 5.70114 2.25003 9.95833 2.25003Z" fill="#877EFF"/>
</svg>
