<svg width="22" height="22" viewBox="0 0 22 22" fill="none" xmlns="http://www.w3.org/2000/svg">
<path fill-rule="evenodd" clip-rule="evenodd" d="M9.94515 0.250001H12.0549C13.4225 0.24998 14.5248 0.249963 15.3918 0.366524C16.2919 0.48754 17.0498 0.746434 17.6517 1.34835C18.0519 1.74855 18.3004 2.2177 18.4577 2.75175C18.6692 2.75503 18.8458 2.76426 19.0084 2.79001C20.3991 3.01027 21.4898 4.10094 21.71 5.49159C21.7502 5.74548 21.7501 6.03358 21.75 6.43528C21.75 6.45653 21.75 6.4781 21.75 6.5V15.5C21.75 15.5219 21.75 15.5435 21.75 15.5647C21.7501 15.9664 21.7502 16.2545 21.71 16.5084C21.4898 17.8991 20.3991 18.9897 19.0084 19.21C18.8458 19.2357 18.6692 19.245 18.4577 19.2482C18.3004 19.7823 18.0519 20.2514 17.6517 20.6517C17.0498 21.2536 16.2919 21.5125 15.3918 21.6335C14.5248 21.75 13.4225 21.75 12.0549 21.75H9.94515C8.57756 21.75 7.47524 21.75 6.60827 21.6335C5.70816 21.5125 4.95029 21.2536 4.34837 20.6517C3.94817 20.2514 3.69961 19.7823 3.54238 19.2482C3.33086 19.245 3.15422 19.2357 2.99161 19.21C1.60096 18.9897 0.510293 17.8991 0.290036 16.5084C0.249823 16.2545 0.249902 15.9664 0.250011 15.5647C0.250017 15.5435 0.250023 15.5219 0.250023 15.5V6.5C0.250023 6.4781 0.250017 6.45652 0.250011 6.43527C0.249902 6.03357 0.249823 5.74548 0.290036 5.49159C0.510293 4.10094 1.60096 3.01027 2.99161 2.79001C3.15422 2.76426 3.33086 2.75503 3.54238 2.75175C3.69961 2.2177 3.94817 1.74855 4.34837 1.34835C4.95029 0.746434 5.70816 0.48754 6.60827 0.366524C7.47524 0.249963 8.57756 0.24998 9.94515 0.250001ZM3.30193 4.26229C3.27396 4.26483 3.24942 4.26788 3.22626 4.27155C2.47745 4.39015 1.89017 4.97743 1.77157 5.72624C1.75235 5.84758 1.75002 6.00684 1.75002 6.5V15.5C1.75002 15.9932 1.75235 16.1524 1.77157 16.2738C1.89017 17.0226 2.47745 17.6099 3.22626 17.7285C3.24942 17.7321 3.27396 17.7352 3.30193 17.7377C3.24999 16.9893 3.25001 16.0995 3.25002 15.0549L3.25002 13.8166C3.25002 13.8161 3.25002 13.8156 3.25002 13.8151L3.25002 6.94512C3.25001 5.90052 3.24999 5.01069 3.30193 4.26229ZM4.75002 14.1209V15C4.75002 16.4354 4.75162 17.4365 4.85317 18.1919C4.95182 18.9257 5.13227 19.3142 5.40903 19.591C5.6858 19.8678 6.07437 20.0482 6.80814 20.1469C7.56349 20.2484 8.56461 20.25 10 20.25H12C13.4354 20.25 14.4366 20.2484 15.1919 20.1469C15.9257 20.0482 16.3143 19.8678 16.591 19.591C16.743 19.439 16.8659 19.2533 16.9622 18.9952L15.0804 17.0092C14.577 16.478 13.8816 16.4416 13.352 16.8781L13.1322 17.0591C12.216 17.8142 10.9548 17.6658 10.1952 16.7751L7.03435 13.0687C6.68431 12.6583 6.1851 12.6485 5.82776 13.0152L4.75002 14.1209ZM17.2292 17.0961L16.1692 15.9775C15.1406 14.892 13.5546 14.7673 12.398 15.7205L12.1783 15.9016C11.9228 16.1121 11.5897 16.0987 11.3365 15.8018L8.17567 12.0954C7.26393 11.0263 5.73916 10.957 4.75357 11.9682L4.75002 11.9719V7C4.75002 5.56458 4.75162 4.56347 4.85317 3.80812C4.95182 3.07435 5.13227 2.68577 5.40903 2.40901C5.6858 2.13225 6.07437 1.9518 6.80814 1.85315C7.56349 1.75159 8.56461 1.75 10 1.75H12C13.4354 1.75 14.4366 1.75159 15.1919 1.85315C15.9257 1.9518 16.3143 2.13225 16.591 2.40901C16.8678 2.68577 17.0482 3.07435 17.1469 3.80812C17.2484 4.56347 17.25 5.56458 17.25 7V15C17.25 15.8326 17.2495 16.519 17.2292 17.0961ZM18.6981 17.7377C18.7261 17.7352 18.7506 17.7321 18.7738 17.7285C19.5226 17.6099 20.1099 17.0226 20.2285 16.2738C20.2477 16.1524 20.25 15.9932 20.25 15.5V6.5C20.25 6.00684 20.2477 5.84758 20.2285 5.72624C20.1099 4.97743 19.5226 4.39015 18.7738 4.27155C18.7506 4.26788 18.7261 4.26483 18.6981 4.26229C18.7501 5.01069 18.75 5.90053 18.75 6.94513V15.0549C18.75 16.0995 18.7501 16.9893 18.6981 17.7377ZM13.5 4.75C13.0858 4.75 12.75 5.08579 12.75 5.5C12.75 5.91421 13.0858 6.25 13.5 6.25C13.9142 6.25 14.25 5.91421 14.25 5.5C14.25 5.08579 13.9142 4.75 13.5 4.75ZM11.25 5.5C11.25 4.25736 12.2574 3.25 13.5 3.25C14.7427 3.25 15.75 4.25736 15.75 5.5C15.75 6.74264 14.7427 7.75 13.5 7.75C12.2574 7.75 11.25 6.74264 11.25 5.5Z" fill="#877EFF"/>
</svg>
