<svg width="20" height="20" viewBox="0 0 20 20" fill="none" xmlns="http://www.w3.org/2000/svg">
<path d="M15.3999 12.85V3.50002C15.3999 2.05002 14.2499 0.900024 12.7999 0.900024H3.4999C2.0499 0.900024 0.899902 2.05002 0.899902 3.50002V12.85C0.899902 14.3 2.0499 15.45 3.4999 15.45H12.8499C14.2499 15.4 15.3999 14.25 15.3999 12.85ZM17.5999 5.50002V13.55C17.5999 15.8 15.7499 17.65 13.4999 17.65H5.4499C5.1499 17.65 4.9999 18 5.1999 18.2C5.6999 18.75 6.3999 19.1 7.2499 19.1H13.9499C16.7999 19.1 19.0999 16.8 19.0999 13.95V7.25002C19.0999 6.45002 18.7499 5.70002 18.1999 5.20002C17.9499 5.00002 17.5999 5.20002 17.5999 5.50002Z" fill="white"/>
</svg>
