<svg width="20" height="20" viewBox="0 0 20 20" fill="none" xmlns="http://www.w3.org/2000/svg">
<path fill-rule="evenodd" clip-rule="evenodd" d="M4.6453 3.57494C3.26281 4.20688 2.25 5.70997 2.25 7.50236C2.25 9.33353 2.99935 10.745 4.07357 11.9546C4.95894 12.9515 6.0307 13.7778 7.07594 14.5836C7.32419 14.775 7.57096 14.9653 7.81337 15.1563C8.25173 15.5019 8.64277 15.8052 9.01967 16.0255C9.39678 16.2458 9.70033 16.3464 9.95833 16.3464C10.2163 16.3464 10.5199 16.2458 10.897 16.0255C11.2739 15.8052 11.6649 15.5019 12.1033 15.1563C12.3457 14.9653 12.5925 14.775 12.8407 14.5836C13.886 13.7778 14.9577 12.9515 15.8431 11.9546C16.9173 10.745 17.6667 9.33353 17.6667 7.50236C17.6667 5.70997 16.6539 4.20688 15.2714 3.57494C13.9283 2.96101 12.1236 3.12359 10.4086 4.90539C10.2908 5.0278 10.1282 5.09697 9.95833 5.09697C9.78843 5.09697 9.62585 5.0278 9.50803 4.90539C7.79305 3.12359 5.98839 2.96101 4.6453 3.57494ZM9.95833 3.60379C8.03162 1.87998 5.87413 1.63883 4.12564 2.43808C2.27893 3.28221 1 5.2423 1 7.50236C1 9.72364 1.92541 11.4182 3.13893 12.7846C4.11073 13.8789 5.30019 14.7947 6.35069 15.6036C6.58882 15.787 6.81982 15.9648 7.03951 16.138C7.46638 16.4745 7.92462 16.8333 8.38902 17.1047C8.85321 17.376 9.383 17.5964 9.95833 17.5964C10.5337 17.5964 11.0634 17.376 11.5276 17.1047C11.992 16.8333 12.4503 16.4745 12.8771 16.138C13.0968 15.9648 13.3278 15.787 13.566 15.6036C14.6165 14.7947 15.8059 13.8789 16.7777 12.7846C17.9913 11.4182 18.9167 9.72364 18.9167 7.50236C18.9167 5.2423 17.6377 3.28221 15.791 2.43808C14.0425 1.63883 11.885 1.87998 9.95833 3.60379Z" fill="#877EFF"/>
</svg>
