<svg width="20" height="20" viewBox="0 0 20 20" fill="none" xmlns="http://www.w3.org/2000/svg">
<path fill-rule="evenodd" clip-rule="evenodd" d="M2.70801 8.45282C2.70801 4.37031 5.96218 1.04175 9.99967 1.04175C14.0372 1.04175 17.2913 4.37031 17.2913 8.45282C17.2913 10.4237 16.7297 12.54 15.7367 14.3683C14.745 16.1943 13.296 17.7811 11.4834 18.6283C10.5418 19.0684 9.45754 19.0684 8.51592 18.6283C6.70332 17.7811 5.25436 16.1943 4.26264 14.3683C3.2697 12.54 2.70801 10.4237 2.70801 8.45282ZM9.99967 2.29175C6.67337 2.29175 3.95801 5.03965 3.95801 8.45282C3.95801 10.2004 4.4602 12.1129 5.36109 13.7717C6.26321 15.4328 7.53802 16.7914 9.04521 17.4959C9.65138 17.7792 10.348 17.7792 10.9541 17.4959C12.4613 16.7914 13.7361 15.4328 14.6383 13.7717C15.5391 12.1129 16.0413 10.2004 16.0413 8.45282C16.0413 5.03965 13.326 2.29175 9.99967 2.29175ZM9.99967 6.45841C8.96414 6.45841 8.12467 7.29788 8.12467 8.33341C8.12467 9.36895 8.96414 10.2084 9.99967 10.2084C11.0352 10.2084 11.8747 9.36895 11.8747 8.33341C11.8747 7.29788 11.0352 6.45841 9.99967 6.45841ZM6.87467 8.33341C6.87467 6.60752 8.27379 5.20841 9.99967 5.20841C11.7256 5.20841 13.1247 6.60752 13.1247 8.33341C13.1247 10.0593 11.7256 11.4584 9.99967 11.4584C8.27379 11.4584 6.87467 10.0593 6.87467 8.33341Z" fill="#5C5C7B"/>
</svg>
