<svg width="16" height="16" viewBox="0 0 16 16" fill="none" xmlns="http://www.w3.org/2000/svg">
<g clip-path="url(#clip0_1_813)">
<path fill-rule="evenodd" clip-rule="evenodd" d="M15.0202 0.979699C15.2155 1.17496 15.2155 1.49154 15.0202 1.68681L1.68689 15.0201C1.49162 15.2154 1.17504 15.2154 0.97978 15.0201C0.784518 14.8249 0.784518 14.5083 0.97978 14.313L3.46081 11.832C2.87202 11.8257 2.42367 11.7905 2.01664 11.6022C1.55344 11.3879 1.10761 10.9684 0.865521 10.5191C0.603775 10.0333 0.573062 9.52529 0.529392 8.80293C0.52766 8.77428 0.525907 8.7453 0.524119 8.71596C0.509155 8.47045 0.5 8.22766 0.5 7.99994C0.5 7.77222 0.509155 7.52943 0.524119 7.28392C0.525907 7.25458 0.52766 7.2256 0.529392 7.19695C0.573062 6.47459 0.603775 5.96656 0.865521 5.48077C1.10761 5.03147 1.55344 4.61198 2.01664 4.39768C2.51773 4.16584 3.08143 4.16614 3.8927 4.16657C3.92801 4.16659 3.96379 4.16661 4.00006 4.16661C4.35773 4.16661 4.47971 4.165 4.59421 4.14567C4.7168 4.12496 4.83634 4.0891 4.95008 4.0389C5.05632 3.99202 5.15904 3.92621 5.45765 3.72933L5.6355 3.61207C6.45608 3.07101 7.11416 2.63709 7.65654 2.37362C8.20722 2.10611 8.74941 1.95732 9.29486 2.14346C9.47611 2.20531 9.6506 2.2941 9.80729 2.40422C10.2336 2.70379 10.4368 3.16082 10.5513 3.68643C10.6097 3.95456 10.6497 4.26347 10.6803 4.61249L14.3131 0.979699C14.5084 0.784436 14.825 0.784436 15.0202 0.979699ZM9.74027 5.55254C9.70186 4.81856 9.6593 4.28969 9.57424 3.89933C9.48362 3.48346 9.36289 3.31416 9.23231 3.22239C9.15312 3.16674 9.06349 3.12113 8.97189 3.08987C8.80578 3.03318 8.56835 3.04243 8.09349 3.27311C7.61732 3.50442 7.01393 3.90101 6.15407 4.46796L6.00811 4.56419C5.997 4.57151 5.98604 4.57874 5.97523 4.58588C5.72176 4.75307 5.54621 4.86887 5.35385 4.95377C5.16428 5.03743 4.96504 5.0972 4.76072 5.13171C4.55339 5.16672 4.34309 5.16667 4.03945 5.16661C4.02649 5.16661 4.01336 5.16661 4.00006 5.16661C3.0376 5.16661 2.71274 5.17746 2.43654 5.30525C2.16963 5.42874 1.88536 5.69621 1.74587 5.95511C1.60035 6.22518 1.57363 6.50198 1.52227 7.34476C1.50817 7.57607 1.5 7.79779 1.5 7.99994C1.5 8.20209 1.50817 8.42381 1.52227 8.65512C1.57363 9.4979 1.60035 9.7747 1.74587 10.0448C1.88536 10.3037 2.16963 10.5711 2.43654 10.6946C2.71274 10.8224 3.03761 10.8333 4.00006 10.8333C4.01336 10.8333 4.02649 10.8333 4.03945 10.8333C4.19927 10.8332 4.33324 10.8332 4.45452 10.8383L9.74027 5.55254ZM13.5096 4.21086C13.7613 4.09729 14.0575 4.20927 14.171 4.46098C14.4824 5.15108 14.8333 6.3063 14.8333 7.99992C14.8333 9.46096 14.5722 10.5218 14.3 11.2294C14.1642 11.5826 14.0263 11.846 13.9183 12.0259C13.8644 12.1158 13.818 12.1847 13.7832 12.2335C13.7658 12.2579 13.7512 12.2772 13.7401 12.2916C13.7346 12.2988 13.7298 12.3047 13.726 12.3095L13.721 12.3157L13.7191 12.3181L13.7182 12.3191C13.718 12.3193 13.7174 12.32 13.3333 11.9999L13.7174 12.32C13.5407 12.5321 13.2254 12.5608 13.0132 12.384C12.8021 12.2081 12.7727 11.895 12.9467 11.6829C12.9471 11.6824 12.9479 11.6814 12.949 11.6799C12.9525 11.6754 12.9595 11.6662 12.9694 11.6523C12.9893 11.6245 13.021 11.5778 13.0608 11.5114C13.1404 11.3788 13.2525 11.1672 13.3667 10.8704C13.5945 10.278 13.8333 9.33887 13.8333 7.99992C13.8333 6.44903 13.5129 5.43391 13.2595 4.87224C13.1459 4.62054 13.2579 4.32442 13.5096 4.21086ZM12.1093 6.17702C12.3797 6.12089 12.6444 6.29457 12.7005 6.56495C12.774 6.9186 12.8333 7.39254 12.8333 7.99992C12.8333 8.74 12.7452 9.28181 12.651 9.64911C12.604 9.83259 12.5556 9.97188 12.5163 10.07C12.4967 10.119 12.4794 10.1577 12.4658 10.1864C12.4589 10.2007 12.453 10.2125 12.4482 10.2219L12.4418 10.2342L12.4392 10.2389L12.4381 10.2409L12.4376 10.2419C12.4374 10.2421 12.4371 10.2427 12.0184 10.0101L12.4371 10.2427C12.303 10.4841 11.9986 10.5711 11.7572 10.437C11.5178 10.304 11.4303 10.0036 11.5596 9.76326L11.5629 9.75644C11.5675 9.74684 11.5762 9.72769 11.5878 9.6986C11.6111 9.64046 11.646 9.54225 11.6823 9.40073C11.7548 9.11802 11.8333 8.65984 11.8333 7.99992C11.8333 7.45811 11.7804 7.05238 11.7214 6.76822C11.6653 6.49785 11.839 6.23316 12.1093 6.17702ZM10.3333 7.49994C10.6095 7.49994 10.8333 7.7238 10.8333 7.99994C10.8333 8.36794 10.8091 9.01676 10.7746 9.76007L10.7728 9.7984C10.7276 10.7717 10.6913 11.553 10.5852 12.1425C10.4772 12.7422 10.278 13.2649 9.80729 13.5957C9.6506 13.7058 9.47611 13.7946 9.29486 13.8564C8.80018 14.0252 8.30848 13.9181 7.81362 13.6993C7.32498 13.4831 6.75181 13.1205 6.05928 12.6666C5.82831 12.5153 5.76377 12.2054 5.91513 11.9744C6.06648 11.7434 6.37641 11.6789 6.60738 11.8302C7.31322 12.2928 7.81761 12.6075 8.21815 12.7847C8.61249 12.9592 8.82163 12.9613 8.97189 12.91C9.06349 12.8788 9.15312 12.8331 9.23231 12.7775C9.37673 12.676 9.50843 12.4796 9.60101 11.9654C9.694 11.4488 9.72827 10.7342 9.77569 9.71366C9.81037 8.96728 9.83333 8.34112 9.83333 7.99994C9.83333 7.7238 10.0572 7.49994 10.3333 7.49994Z" fill="#EFEFEF"/>
</g>
<defs>
<clipPath id="clip0_1_813">
<rect width="16" height="16" fill="white"/>
</clipPath>
</defs>
</svg>
