<svg width="24" height="23" viewBox="0 0 24 23" fill="none" xmlns="http://www.w3.org/2000/svg">
<path fill-rule="evenodd" clip-rule="evenodd" d="M3.68808 1.3835C5.1083 -0.028653 7.44673 0.222711 8.63593 1.81123L10.1071 3.77636C11.0747 5.06889 10.9893 6.87537 9.84073 8.01744L9.56217 8.29442C9.55 8.32976 9.52049 8.44084 9.55324 8.65195C9.627 9.12737 10.024 10.1358 11.6906 11.793C13.3566 13.4495 14.3723 13.8461 14.8544 13.9201C15.0729 13.9536 15.1872 13.9224 15.2226 13.91L15.6986 13.4367C16.7196 12.4215 18.2887 12.2317 19.5529 12.9189L21.7818 14.1306C23.6904 15.1681 24.1726 17.7625 22.6089 19.3173L20.9516 20.9652C20.4294 21.4844 19.7272 21.9174 18.8702 21.9972C16.7597 22.194 11.8384 21.9429 6.66764 16.8015C1.84007 12.0013 0.913663 7.81534 0.79645 5.75287L1.67004 5.70322L0.796449 5.75287C0.737181 4.70997 1.23 3.82762 1.85687 3.20431L3.68808 1.3835ZM7.23501 2.85999C6.64394 2.07046 5.54228 2.00768 4.92198 2.62446L3.09078 4.44526C2.70588 4.82799 2.52068 5.24977 2.54363 5.65358C2.63676 7.29227 3.38494 11.0696 7.90155 15.5605C12.6399 20.272 17.0163 20.4125 18.7078 20.2548C19.0534 20.2226 19.3971 20.043 19.7177 19.7242L21.375 18.0763C22.0487 17.4065 21.9001 16.1868 20.946 15.6681L18.7171 14.4564C18.1016 14.1218 17.3805 14.2322 16.9325 14.6777L16.4011 15.206L15.7842 14.5855C16.4011 15.206 16.4003 15.2069 16.3995 15.2077L16.3977 15.2094L16.3942 15.2128L16.3866 15.2201L16.3695 15.236C16.3573 15.2472 16.3432 15.2595 16.3274 15.2726C16.2957 15.2989 16.2567 15.3286 16.2101 15.3598C16.1167 15.4224 15.9934 15.4904 15.8384 15.5482C15.5224 15.6659 15.1057 15.7291 14.5891 15.6499C13.5778 15.4948 12.2382 14.8053 10.4567 13.0339C8.6758 11.2632 7.98054 9.92973 7.82393 8.92024C7.74385 8.40404 7.80772 7.98719 7.92687 7.67096C7.98526 7.51598 8.05408 7.39275 8.11723 7.29954C8.14873 7.25306 8.1787 7.21419 8.20515 7.18263C8.21838 7.16685 8.23074 7.15287 8.24199 7.14065L8.25801 7.12364L8.26534 7.1161L8.26884 7.11257L8.27053 7.11087C8.27137 7.11003 8.2722 7.1092 8.88916 7.72968L8.2722 7.1092L8.60682 6.77649C9.10686 6.27929 9.1769 5.45393 8.70616 4.82513L7.23501 2.85999Z" fill="#7878A3"/>
</svg>
