<svg width="20" height="20" viewBox="0 0 20 20" fill="none" xmlns="http://www.w3.org/2000/svg">
<path d="M1.66667 9.99984C1.66667 6.07147 1.66667 4.10728 2.88706 2.88689C4.10745 1.6665 6.07163 1.6665 10 1.6665C13.9284 1.6665 15.8926 1.6665 17.1129 2.88689C18.3333 4.10728 18.3333 6.07147 18.3333 9.99984C18.3333 13.9282 18.3333 15.8924 17.1129 17.1128C15.8926 18.3332 13.9284 18.3332 10 18.3332C6.07163 18.3332 4.10745 18.3332 2.88706 17.1128C1.66667 15.8924 1.66667 13.9282 1.66667 9.99984Z" stroke="#877EFF" stroke-width="1.5"/>
<circle cx="13.3333" cy="6.66667" r="1.66667" stroke="#877EFF" stroke-width="1.5"/>
<path d="M1.66667 10.4169L3.12633 9.13976C3.88572 8.47529 5.03024 8.5134 5.74374 9.22691L9.31852 12.8017C9.89121 13.3744 10.7927 13.4525 11.4553 12.9868L11.7038 12.8121C12.6574 12.142 13.9475 12.2196 14.8137 12.9993L17.5 15.4169" stroke="#877EFF" stroke-width="1.5" stroke-linecap="round"/>
</svg>
