<svg width="10" height="8" viewBox="0 0 10 8" fill="none" xmlns="http://www.w3.org/2000/svg">
<path fill-rule="evenodd" clip-rule="evenodd" d="M3.85103 0.773893C4.02188 0.944747 4.02188 1.22176 3.85103 1.39261L1.68122 3.56242L6.45833 3.56242C7.01445 3.56242 7.8389 3.72566 8.53688 4.22821C9.25718 4.74682 9.8125 5.60733 9.8125 6.91659C9.8125 7.15821 9.61662 7.35409 9.375 7.35409C9.13338 7.35409 8.9375 7.15821 8.9375 6.91659C8.9375 5.89251 8.5206 5.29469 8.02562 4.9383C7.50832 4.56585 6.87443 4.43742 6.45833 4.43742L1.68122 4.43742L3.85103 6.60723C4.02188 6.77808 4.02188 7.05509 3.85103 7.22594C3.68017 7.3968 3.40316 7.3968 3.23231 7.22594L0.315641 4.30928C0.144786 4.13842 0.144786 3.86141 0.315641 3.69056L3.23231 0.773893C3.40316 0.603038 3.68017 0.603038 3.85103 0.773893Z" fill="#FFB620"/>
</svg>
