<?xml version="1.0" encoding="utf-8"?>
<!-- Generator: Adobe Illustrator 24.1.1, SVG Export Plug-In . SVG Version: 6.00 Build 0)  -->
<svg version="1.1" id="Layer_1" xmlns="http://www.w3.org/2000/svg" xmlns:xlink="http://www.w3.org/1999/xlink" x="0px" y="0px"
	 viewBox="0 0 20 20" style="enable-background:new 0 0 20 20;" xml:space="preserve">
<style type="text/css">
	.st0{fill:#877EFF;}
</style>
<g>
	<path class="st0" d="M18,5c-0.1-1.1-0.5-2-1.1-2.7c-0.7-0.7-1.6-1-2.6-1.1C13.1,1,11.8,1,10,1H10C8.2,1,6.9,1,5.8,1.2
		c-1.1,0.1-2,0.5-2.6,1.1C2.5,3,2.2,3.9,2,5C1.9,6.1,1.9,7.5,1.9,9.2v4.3c0,1.3,0,2.3,0.1,3c0.1,0.7,0.2,1.4,0.7,1.8
		c0.4,0.4,0.9,0.6,1.4,0.7C4.8,19,5.4,18.7,6,18.3c0.6-0.4,1.3-1.1,2.3-1.9l0,0c0.4-0.4,0.7-0.6,1-0.8c0.2-0.2,0.4-0.2,0.5-0.3
		c0.2,0,0.3,0,0.5,0c0.1,0,0.3,0.1,0.5,0.3c0.2,0.2,0.5,0.4,1,0.8l0,0c0.9,0.8,1.7,1.5,2.3,1.9c0.6,0.4,1.2,0.7,1.9,0.7
		c0.5-0.1,1-0.3,1.4-0.7c0.5-0.4,0.7-1.1,0.7-1.8c0.1-0.8,0.1-1.7,0.1-3V9.2C18.1,7.5,18.1,6.1,18,5z M12.5,5.6h-5
		C7.2,5.6,6.9,5.3,6.9,5s0.3-0.6,0.6-0.6h5c0.3,0,0.6,0.3,0.6,0.6S12.8,5.6,12.5,5.6z"/>
</g>
</svg>
