<svg width="20" height="20" viewBox="0 0 20 20" fill="none" xmlns="http://www.w3.org/2000/svg">
<path d="M7.5 4.375C7.15482 4.375 6.875 4.65482 6.875 5C6.875 5.34518 7.15482 5.625 7.5 5.625H12.5C12.8452 5.625 13.125 5.34518 13.125 5C13.125 4.65482 12.8452 4.375 12.5 4.375H7.5Z" fill="#877EFF"/>
<path fill-rule="evenodd" clip-rule="evenodd" d="M9.95209 1.04167C8.22495 1.04165 6.8643 1.04164 5.80107 1.18614C4.70935 1.33451 3.83841 1.64557 3.15403 2.33736C2.47058 3.02822 2.1641 3.90585 2.01775 5.00618C1.87498 6.07959 1.87499 7.45385 1.875 9.20089V13.4492C1.87499 14.7055 1.87498 15.7002 1.95501 16.449C2.03409 17.1891 2.20373 17.8567 2.6882 18.3032C3.07688 18.6614 3.56842 18.8872 4.09304 18.9472C4.74927 19.0223 5.36199 18.709 5.96557 18.2814C6.57636 17.8488 7.3173 17.1934 8.25212 16.3666L8.28254 16.3397C8.71593 15.9564 9.00935 15.6977 9.25416 15.5187C9.49076 15.3456 9.63522 15.2831 9.75698 15.2586C9.91743 15.2263 10.0826 15.2263 10.243 15.2586C10.3648 15.2831 10.5092 15.3456 10.7458 15.5187C10.9906 15.6977 11.2841 15.9564 11.7175 16.3397L11.7479 16.3666C12.6827 17.1934 13.4237 17.8488 14.0344 18.2814C14.638 18.709 15.2507 19.0223 15.907 18.9472C16.4316 18.8872 16.9231 18.6614 17.3118 18.3032C17.7963 17.8567 17.9659 17.1891 18.045 16.449C18.125 15.7002 18.125 14.7055 18.125 13.4492V9.20087C18.125 7.45385 18.125 6.07958 17.9823 5.00618C17.8359 3.90585 17.5294 3.02822 16.846 2.33736C16.1616 1.64557 15.2907 1.33451 14.1989 1.18614C13.1357 1.04164 11.7751 1.04165 10.0479 1.04167H9.95209ZM4.04267 3.21647C4.45664 2.79801 5.01876 2.55395 5.9694 2.42475C6.93871 2.29302 8.21438 2.29167 10 2.29167C11.7856 2.29167 13.0613 2.29302 14.0306 2.42475C14.9812 2.55395 15.5434 2.79801 15.9573 3.21647C16.3722 3.63586 16.6149 4.20682 16.7432 5.17098C16.8737 6.15243 16.875 7.44353 16.875 9.24793V13.4091C16.875 14.7143 16.8741 15.6418 16.8021 16.3162C16.7282 17.0073 16.592 17.2667 16.4647 17.384C16.2699 17.5635 16.0248 17.6756 15.7649 17.7053C15.5985 17.7244 15.3196 17.66 14.757 17.2614C14.2081 16.8726 13.5176 16.2631 12.5456 15.4034L12.5238 15.3841C12.1177 15.0249 11.781 14.727 11.4837 14.5096C11.1728 14.2824 10.8594 14.1076 10.4899 14.0332C10.1665 13.9681 9.83352 13.9681 9.51015 14.0332C9.14064 14.1076 8.82715 14.2824 8.51633 14.5096C8.21902 14.727 7.88226 15.0249 7.47621 15.3841L7.45439 15.4034C6.48239 16.2631 5.79189 16.8726 5.24304 17.2614C4.68038 17.66 4.40151 17.7244 4.23515 17.7053C3.97516 17.6756 3.73014 17.5635 3.53531 17.384C3.40803 17.2667 3.27179 17.0073 3.19793 16.3162C3.12587 15.6418 3.125 14.7143 3.125 13.4091V9.24793C3.125 7.44353 3.1263 6.15243 3.25684 5.17098C3.38508 4.20682 3.62777 3.63586 4.04267 3.21647Z" fill="#877EFF"/>
</svg>
