<svg width="20" height="19" viewBox="0 0 20 19" fill="none" xmlns="http://www.w3.org/2000/svg">
<g filter="url(#filter0_d_1_372)">
<path fill-rule="evenodd" clip-rule="evenodd" d="M15.1199 2.02569C14.1449 2.19913 12.8305 2.63552 10.9857 3.25043L6.80967 4.64245C5.32632 5.1369 4.25192 5.49557 3.49305 5.81833C2.69966 6.15578 2.41742 6.39099 2.32576 6.54867C2.04342 7.03432 2.04342 7.63413 2.32576 8.11978C2.41742 8.27746 2.69966 8.51267 3.49305 8.85012C4.25192 9.17288 5.32632 9.53155 6.80967 10.026C6.8331 10.0338 6.85622 10.0415 6.87906 10.0491C7.28421 10.1839 7.59917 10.2886 7.87012 10.47C8.13116 10.6448 8.3554 10.869 8.53015 11.13C8.71153 11.401 8.8163 11.716 8.95107 12.1211C8.95866 12.1439 8.96636 12.1671 8.97416 12.1905C9.46862 13.6738 9.82728 14.7482 10.15 15.5071C10.4875 16.3005 10.7227 16.5827 10.8804 16.6744C11.366 16.9567 11.9658 16.9567 12.4515 16.6744C12.6092 16.5827 12.8444 16.3005 13.1818 15.5071C13.5046 14.7483 13.8633 13.6739 14.3577 12.1905L15.7497 8.01443C16.3646 6.16969 16.801 4.85523 16.9745 3.88024C17.1487 2.90062 17.0156 2.4845 16.7656 2.23455C16.5157 1.9846 16.0995 1.85143 15.1199 2.02569ZM14.8957 0.764976C15.9808 0.571935 16.9582 0.616179 17.6711 1.32909C18.384 2.04201 18.4282 3.01935 18.2352 4.10452C18.0433 5.18313 17.5754 6.58679 16.983 8.36391L15.5622 12.6262C15.0802 14.0724 14.7056 15.1961 14.3602 16.0083C14.027 16.7917 13.657 17.4547 13.0951 17.7814C12.2115 18.2951 11.1203 18.2951 10.2368 17.7814C9.67485 17.4547 9.30488 16.7917 8.97169 16.0083C8.62626 15.1961 8.2517 14.0724 7.76964 12.6263L7.75937 12.5954C7.59048 12.0888 7.539 11.9513 7.46607 11.8424C7.38444 11.7205 7.2797 11.6157 7.15777 11.5341C7.04883 11.4612 6.9114 11.4097 6.40474 11.2408L6.37387 11.2305C4.92771 10.7485 3.80402 10.3739 2.99187 10.0285C2.20847 9.69528 1.54542 9.32531 1.21873 8.76336C0.705086 7.87983 0.705086 6.78862 1.21873 5.90509C1.54542 5.34314 2.20847 4.97317 2.99187 4.63998C3.80403 4.29455 4.92774 3.91998 6.37393 3.43792L10.6363 2.01714C12.4134 1.42475 13.817 0.956851 14.8957 0.764976ZM14.7341 4.2711C14.9827 4.52252 14.9805 4.9279 14.7291 5.17654L11.3144 8.5536C11.063 8.80224 10.6576 8.8 10.4089 8.54858C10.1603 8.29716 10.1625 7.89178 10.4139 7.64314L13.8286 4.26608C14.0801 4.01744 14.4854 4.01968 14.7341 4.2711Z" fill="#877EFF" fill-opacity="0.937255" shape-rendering="crispEdges"/>
</g>
<defs>
<filter id="filter0_d_1_372" x="-3.1665" y="0.666668" width="25.5" height="25.5" filterUnits="userSpaceOnUse" color-interpolation-filters="sRGB">
<feFlood flood-opacity="0" result="BackgroundImageFix"/>
<feColorMatrix in="SourceAlpha" type="matrix" values="0 0 0 0 0 0 0 0 0 0 0 0 0 0 0 0 0 0 127 0" result="hardAlpha"/>
<feOffset dy="4"/>
<feGaussianBlur stdDeviation="2"/>
<feComposite in2="hardAlpha" operator="out"/>
<feColorMatrix type="matrix" values="0 0 0 0 0 0 0 0 0 0 0 0 0 0 0 0 0 0 0.25 0"/>
<feBlend mode="normal" in2="BackgroundImageFix" result="effect1_dropShadow_1_372"/>
<feBlend mode="normal" in="SourceGraphic" in2="effect1_dropShadow_1_372" result="shape"/>
</filter>
</defs>
</svg>
