<svg width="24" height="24" viewBox="0 0 24 24" fill="none" xmlns="http://www.w3.org/2000/svg">
<path fill-rule="evenodd" clip-rule="evenodd" d="M11.9995 8.25C9.92845 8.25 8.24951 9.92893 8.24951 12C8.24951 14.0711 9.92845 15.75 11.9995 15.75C14.0706 15.75 15.7495 14.0711 15.7495 12C15.7495 9.92893 14.0706 8.25 11.9995 8.25ZM9.74951 12C9.74951 10.7574 10.7569 9.75 11.9995 9.75C13.2422 9.75 14.2495 10.7574 14.2495 12C14.2495 13.2426 13.2422 14.25 11.9995 14.25C10.7569 14.25 9.74951 13.2426 9.74951 12Z" fill="#877EFF"/>
<path fill-rule="evenodd" clip-rule="evenodd" d="M11.9743 1.25C11.5298 1.24999 11.1588 1.24999 10.8541 1.27077C10.537 1.29241 10.2375 1.33905 9.94712 1.45933C9.2733 1.73844 8.73794 2.27379 8.45883 2.94762C8.31353 3.29842 8.27418 3.66812 8.25915 4.06996C8.24707 4.39299 8.08405 4.66251 7.84346 4.80141C7.60288 4.94031 7.28796 4.94673 7.00218 4.79568C6.64665 4.60777 6.3068 4.45699 5.93034 4.40743C5.20724 4.31223 4.47593 4.50819 3.8973 4.95219C3.64794 5.14353 3.45778 5.3796 3.2805 5.6434C3.11019 5.89681 2.92468 6.21815 2.70245 6.60307L2.6772 6.64681C2.45496 7.03172 2.26944 7.35304 2.13513 7.62723C1.99532 7.91267 1.88595 8.19539 1.84492 8.50701C1.74973 9.23012 1.94568 9.96142 2.38968 10.5401C2.62079 10.8412 2.92124 11.0602 3.26168 11.2741C3.53546 11.4461 3.68739 11.7221 3.68737 12C3.68736 12.2778 3.53543 12.5538 3.26169 12.7258C2.9212 12.9397 2.62072 13.1587 2.38958 13.4599C1.94558 14.0385 1.74963 14.7698 1.84483 15.4929C1.88585 15.8045 1.99522 16.0873 2.13503 16.3727C2.26934 16.6469 2.45486 16.9682 2.67709 17.3531L2.70235 17.3969C2.92458 17.7818 3.11009 18.1031 3.2804 18.3565C3.45769 18.6203 3.64784 18.8564 3.89721 19.0477C4.47583 19.4917 5.20714 19.6877 5.93025 19.5925C6.30668 19.5429 6.64651 19.3922 7.00202 19.2043C7.28784 19.0532 7.6028 19.0596 7.84341 19.1986C8.08403 19.3375 8.24707 19.607 8.25915 19.9301C8.27418 20.3319 8.31354 20.7016 8.45883 21.0524C8.73794 21.7262 9.2733 22.2616 9.94712 22.5407C10.2375 22.661 10.537 22.7076 10.8541 22.7292C11.1587 22.75 11.5298 22.75 11.9742 22.75H12.0248C12.4692 22.75 12.8403 22.75 13.1449 22.7292C13.462 22.7076 13.7615 22.661 14.0519 22.5407C14.7257 22.2616 15.2611 21.7262 15.5402 21.0524C15.6855 20.7016 15.7248 20.3319 15.7399 19.93C15.7519 19.607 15.9149 19.3375 16.1555 19.1985C16.3961 19.0596 16.7111 19.0532 16.9969 19.2042C17.3524 19.3921 17.6922 19.5429 18.0687 19.5924C18.7918 19.6876 19.5231 19.4917 20.1017 19.0477C20.3511 18.8563 20.5412 18.6203 20.7185 18.3565C20.8888 18.1031 21.0743 17.7818 21.2965 17.3969L21.3218 17.3531C21.544 16.9682 21.7296 16.6468 21.8639 16.3726C22.0037 16.0872 22.1131 15.8045 22.1541 15.4929C22.2493 14.7697 22.0533 14.0384 21.6093 13.4598C21.3782 13.1586 21.0777 12.9397 20.7373 12.7258C20.4635 12.5538 20.3116 12.2778 20.3116 11.9999C20.3116 11.7221 20.4636 11.4462 20.7373 11.2742C21.0778 11.0603 21.3783 10.8414 21.6094 10.5401C22.0534 9.96149 22.2494 9.23019 22.1542 8.50708C22.1132 8.19546 22.0038 7.91274 21.864 7.6273C21.7297 7.35313 21.5442 7.03183 21.322 6.64695L21.2967 6.60318C21.0745 6.21825 20.8889 5.89688 20.7186 5.64347C20.5413 5.37967 20.3512 5.1436 20.1018 4.95225C19.5232 4.50826 18.7919 4.3123 18.0688 4.4075C17.6923 4.45706 17.3525 4.60782 16.997 4.79572C16.7112 4.94679 16.3962 4.94036 16.1556 4.80144C15.915 4.66253 15.7519 4.39297 15.7399 4.06991C15.7248 3.66808 15.6855 3.2984 15.5402 2.94762C15.2611 2.27379 14.7257 1.73844 14.0519 1.45933C13.7615 1.33905 13.462 1.29241 13.1449 1.27077C12.8403 1.24999 12.4692 1.24999 12.0248 1.25H11.9743ZM10.5211 2.84515C10.5983 2.81319 10.7155 2.78372 10.9562 2.76729C11.2037 2.75041 11.5233 2.75 11.9995 2.75C12.4757 2.75 12.7953 2.75041 13.0428 2.76729C13.2835 2.78372 13.4007 2.81319 13.4779 2.84515C13.7841 2.97202 14.0275 3.21536 14.1544 3.52165C14.1944 3.61826 14.2275 3.76887 14.2409 4.12597C14.2705 4.91835 14.6795 5.68129 15.4056 6.10048C16.1317 6.51968 16.9969 6.4924 17.6979 6.12188C18.0138 5.9549 18.1609 5.90832 18.2645 5.89467C18.5932 5.8514 18.9256 5.94047 19.1887 6.14228C19.2549 6.19312 19.339 6.27989 19.4736 6.48016C19.612 6.68603 19.7721 6.9626 20.0102 7.375C20.2483 7.78741 20.4078 8.06438 20.5169 8.28713C20.623 8.50382 20.6561 8.62007 20.667 8.70287C20.7103 9.03155 20.6212 9.36397 20.4194 9.62698C20.3557 9.70995 20.2419 9.81399 19.9392 10.0041C19.2679 10.426 18.8117 11.1616 18.8116 11.9999C18.8116 12.8383 19.2678 13.574 19.9392 13.9959C20.2418 14.186 20.3556 14.29 20.4193 14.373C20.6211 14.636 20.7102 14.9684 20.6669 15.2971C20.656 15.3799 20.6229 15.4961 20.5168 15.7128C20.4077 15.9355 20.2482 16.2125 20.0101 16.6249C19.772 17.0373 19.6119 17.3139 19.4735 17.5198C19.3389 17.72 19.2548 17.8068 19.1886 17.8576C18.9255 18.0595 18.5931 18.1485 18.2645 18.1053C18.1608 18.0916 18.0138 18.045 17.6978 17.8781C16.9968 17.5075 16.1315 17.4803 15.4054 17.8995C14.6795 18.3187 14.2705 19.0816 14.2409 19.874C14.2275 20.2311 14.1944 20.3817 14.1544 20.4784C14.0275 20.7846 13.7841 21.028 13.4779 21.1549C13.4007 21.1868 13.2835 21.2163 13.0428 21.2327C12.7953 21.2496 12.4757 21.25 11.9995 21.25C11.5233 21.25 11.2037 21.2496 10.9562 21.2327C10.7155 21.2163 10.5983 21.1868 10.5211 21.1549C10.2149 21.028 9.97152 20.7846 9.84465 20.4784C9.80463 20.3817 9.77146 20.2311 9.75811 19.874C9.72847 19.0817 9.31948 18.3187 8.59341 17.8995C7.86735 17.4803 7.00213 17.5076 6.30109 17.8781C5.98516 18.0451 5.83814 18.0917 5.73446 18.1053C5.40577 18.1486 5.07336 18.0595 4.81035 17.8577C4.7441 17.8069 4.65996 17.7201 4.52537 17.5198C4.38702 17.314 4.22687 17.0374 3.98877 16.625C3.75067 16.2126 3.59122 15.9356 3.48211 15.7129C3.37597 15.4962 3.34289 15.3799 3.33199 15.2971C3.28872 14.9684 3.37779 14.636 3.57961 14.373C3.64327 14.2901 3.75712 14.186 4.05971 13.9959C4.7311 13.5741 5.18733 12.8384 5.18737 12.0001C5.18742 11.1616 4.73117 10.4259 4.05972 10.004C3.7572 9.81389 3.64336 9.70987 3.57971 9.62691C3.37789 9.3639 3.28882 9.03149 3.33209 8.7028C3.34299 8.62001 3.37607 8.50375 3.48221 8.28707C3.59132 8.06431 3.75076 7.78734 3.98887 7.37493C4.22697 6.96253 4.38712 6.68596 4.52547 6.48009C4.66006 6.27983 4.74419 6.19305 4.81045 6.14222C5.07346 5.9404 5.40587 5.85133 5.73456 5.8946C5.83824 5.90825 5.98527 5.95483 6.30124 6.12184C7.00225 6.49235 7.86742 6.51962 8.59345 6.10045C9.31949 5.68128 9.72847 4.91837 9.7581 4.12602C9.77146 3.76889 9.80463 3.61827 9.84465 3.52165C9.97152 3.21536 10.2149 2.97202 10.5211 2.84515Z" fill="#877EFF"/>
</svg>
