<svg width="20" height="20" viewBox="0 0 20 20" fill="none" xmlns="http://www.w3.org/2000/svg">
<path fill-rule="evenodd" clip-rule="evenodd" d="M18.9585 5.83337C18.9585 6.17855 18.6787 6.45837 18.3335 6.45837L1.66683 6.45837C1.32166 6.45837 1.04183 6.17855 1.04183 5.83337C1.04183 5.4882 1.32166 5.20837 1.66683 5.20837L18.3335 5.20837C18.6787 5.20837 18.9585 5.4882 18.9585 5.83337Z" fill="#5C5C7B"/>
<path fill-rule="evenodd" clip-rule="evenodd" d="M16.4585 10C16.4585 10.3452 16.1787 10.625 15.8335 10.625L4.16683 10.625C3.82165 10.625 3.54183 10.3452 3.54183 10C3.54183 9.65482 3.82165 9.375 4.16683 9.375L15.8335 9.375C16.1787 9.375 16.4585 9.65482 16.4585 10Z" fill="#5C5C7B"/>
<path fill-rule="evenodd" clip-rule="evenodd" d="M13.9585 14.1666C13.9585 14.5118 13.6787 14.7916 13.3335 14.7916L6.66683 14.7916C6.32165 14.7916 6.04183 14.5118 6.04183 14.1666C6.04183 13.8214 6.32165 13.5416 6.66683 13.5416H13.3335C13.6787 13.5416 13.9585 13.8214 13.9585 14.1666Z" fill="#5C5C7B"/>
</svg>
