<svg width="16" height="18" viewBox="0 0 16 18" fill="none" xmlns="http://www.w3.org/2000/svg">
<path fill-rule="evenodd" clip-rule="evenodd" d="M7.99979 0.0415039C5.81366 0.0415039 4.04145 1.81371 4.04145 3.99984C4.04145 6.18596 5.81366 7.95817 7.99979 7.95817C10.1859 7.95817 11.9581 6.18596 11.9581 3.99984C11.9581 1.81371 10.1859 0.0415039 7.99979 0.0415039ZM5.29145 3.99984C5.29145 2.50407 6.50402 1.2915 7.99979 1.2915C9.49556 1.2915 10.7081 2.50407 10.7081 3.99984C10.7081 5.49561 9.49556 6.70817 7.99979 6.70817C6.50402 6.70817 5.29145 5.49561 5.29145 3.99984Z" fill="#877EFF"/>
<path fill-rule="evenodd" clip-rule="evenodd" d="M7.99979 9.20817C6.07183 9.20817 4.29556 9.6464 2.97933 10.3868C1.68269 11.1161 0.70812 12.2216 0.70812 13.5832L0.708064 13.6681C0.707123 14.6363 0.705941 15.8515 1.7718 16.7195C2.29635 17.1466 3.03018 17.4504 4.02163 17.6511C5.01584 17.8523 6.31164 17.9582 7.99979 17.9582C9.68793 17.9582 10.9837 17.8523 11.9779 17.6511C12.9694 17.4504 13.7032 17.1466 14.2278 16.7195C15.2936 15.8515 15.2925 14.6363 15.2915 13.6681L15.2915 13.5832C15.2915 12.2216 14.3169 11.1161 13.0202 10.3868C11.704 9.6464 9.92775 9.20817 7.99979 9.20817ZM1.95812 13.5832C1.95812 12.8737 2.47593 12.1041 3.59215 11.4763C4.68878 10.8594 6.24585 10.4582 7.99979 10.4582C9.75373 10.4582 11.3108 10.8594 12.4074 11.4763C13.5236 12.1041 14.0415 12.8737 14.0415 13.5832C14.0415 14.673 14.0079 15.2865 13.4385 15.7502C13.1297 16.0016 12.6135 16.2471 11.73 16.4259C10.8492 16.6042 9.64498 16.7082 7.99979 16.7082C6.3546 16.7082 5.1504 16.6042 4.26961 16.4259C3.38606 16.2471 2.86989 16.0016 2.56111 15.7502C1.99172 15.2865 1.95812 14.673 1.95812 13.5832Z" fill="#877EFF"/>
</svg>
